Coordinates
version=1
nRows=9
nColumns=36
inDegrees=yes

Units are S.I. units (second, meters, Newtons, ...)
If the header above contains a line with 'inDegrees', this indicates whether rotational values are in degrees (yes) or radians (no).

endheader
time	pelvis_tilt	pelvis_list	pelvis_rotation	pelvis_tx	pelvis_ty	pelvis_tz	hip_flexion_r	hip_adduction_r	hip_rotation_r	knee_angle_r	knee_angle_r_beta	ankle_angle_r	subtalar_angle_r	mtp_angle_r	hip_flexion_l	hip_adduction_l	hip_rotation_l	knee_angle_l	knee_angle_l_beta	ankle_angle_l	subtalar_angle_l	mtp_angle_l	lumbar_extension	lumbar_bending	lumbar_rotation	arm_flex_r	arm_add_r	arm_rot_r	elbow_flex_r	pro_sup_r	arm_flex_l	arm_add_l	arm_rot_l	elbow_flex_l	pro_sup_l
      1.63750000	    -22.01674206	      0.33131350	      0.53166421	     -0.85293094	      1.04177798	     -0.06649514	     52.49078797	     10.54848886	      8.68188643	     79.77330607	      1.39230685	     42.98287268	    -27.70513536	     -7.49999987	     53.53886010	     -1.27003901	      3.77064688	     80.48337126	      1.40469982	     43.65477436	     -8.50488245	     -7.49999987	    -28.62737424	     -4.04553532	      0.56061609	     33.02289923	     -7.78826771	     28.21518240	     34.25730647	     86.94486833	     40.79146160	    -20.68474365	     29.81285691	     32.02863131	     60.20398966
      1.64166670	    -22.22267223	      0.36046273	      0.45488245	     -0.84733821	      1.03637055	     -0.06197297	     52.37882713	     10.54054214	      8.72666708	     79.93390830	      1.39510988	     43.27461240	    -27.29675411	     -7.49999987	     53.46924480	     -1.41887791	      3.72534262	     80.86805059	      1.41141374	     43.55984638	     -8.82993706	     -7.49999987	    -27.82171978	     -4.32351956	      0.89158175	     35.25143507	     -7.31166302	     26.94343962	     36.01696568	     87.86764813	     41.83271094	    -20.38580975	     27.17483552	     33.95264102	     61.89304083
      1.64583330	    -22.37166335	      0.57738312	      0.57002671	     -0.83979051	      1.03965827	     -0.06636183	     51.95186137	     10.08740148	      8.85112132	     79.91919053	      1.39485301	     43.23373438	    -27.24012755	     -7.49999987	     52.90995818	     -1.10222693	      3.61693271	     80.47067613	      1.40447825	     43.45427206	     -9.02538834	     -7.49999987	    -27.10803613	     -4.62030994	      1.08899588	     36.68635028	     -7.46159589	     26.20717707	     37.94321705	     87.84961457	     42.71116921	    -19.88995951	     25.90514320	     36.38060726	     61.86832523
      1.65000000	    -22.29258542	      0.07595766	      0.59968836	     -0.84035428	      1.04035784	     -0.05729819	     51.53271024	     10.51777222	      8.26537720	     79.48667343	      1.38730416	     43.12498555	    -27.42443064	     -7.49999987	     52.60729692	     -1.32157732	      4.65426234	     80.27945494	      1.40114081	     43.06502700	     -9.83867088	     -7.49999987	    -26.48312244	     -4.31120662	      1.29234400	     37.94525117	     -7.32954921	     25.61380881	     39.61393152	     85.23053159	     43.18623907	    -19.31973481	     24.15562914	     38.54146053	     61.63843881
      1.65416670	    -24.08593161	      0.12077252	      0.00054321	     -0.88184992	      1.05334729	     -0.08990281	     55.14419967	      9.27040018	      8.34845230	     79.13103175	      1.38109704	     40.81224026	    -27.58667174	     -7.49999987	     56.12379217	      0.26873835	      4.73075237	     80.07062721	      1.39749608	     40.36106854	    -12.55125836	     -7.49999987	    -25.04056957	     -3.32458162	      1.61176682	     42.96150094	     -8.92894051	     25.91238467	     41.66190036	     85.01030461	     45.56281420	    -17.36334320	     23.01887652	     40.92382404	     61.75905166
      1.65833330	    -25.10948659	      0.24822097	     -0.30466272	     -0.87986179	      1.05068838	     -0.10029972	     57.50094395	      7.58057703	      8.60473313	     79.09851722	      1.38052956	     39.86670240	    -25.84514594	     -7.49999987	     57.98321862	      2.27053922	      5.24017806	     79.59159877	      1.38913546	     38.94391191	    -14.75942720	     -7.49999987	    -24.14091175	     -1.79311365	      1.34145776	     47.76095943	    -10.54322931	     27.39858732	     43.84898056	     86.37134202	     45.87449822	    -15.04070413	     17.36199711	     44.69139927	     66.71439620
      1.66250000	    -25.94626214	      0.43827587	     -0.48051285	     -0.87534057	      1.05183733	     -0.10009910	     59.15851567	      5.95635777	      8.30880461	     78.70596914	      1.37367830	     38.88976474	    -24.51914702	     -7.49999987	     59.12449086	      3.46727263	      5.36186525	     78.93408261	      1.37765963	     37.59563238	    -16.56372568	     -7.49999987	    -23.03256150	     -0.62625413	      1.59187750	     50.40984732	    -12.35963213	     27.10285640	     46.80467282	     82.94992973	     46.49029155	    -12.87910074	     15.77035501	     47.19613081	     65.53924119
      1.66666670	    -25.60879785	      0.21597409	     -0.36359928	     -0.86664145	      1.05547425	     -0.09599511	     58.54962782	      5.03965110	      7.47683943	     78.02318144	      1.36176141	     38.83007496	    -22.67248298	     -7.49999987	     58.47064724	      3.89780540	      5.98416085	     78.42948523	      1.36885275	     36.41539874	    -17.80261556	     -7.49999987	    -22.99006428	      0.46580115	      1.42896877	     51.74507029	    -13.05425183	     26.70382632	     48.69864784	     83.15912315	     47.23094505	    -11.14054272	     12.77058253	     48.17040251	     65.05599618
      1.67083330	    -25.42702341	     -0.11383266	     -0.32560136	     -0.85040726	      1.05179674	     -0.08675287	     57.09106857	      5.23362842	      6.63979644	     77.30389653	      1.34920752	     39.56859633	    -21.47193386	     -7.49999987	     57.27254535	      3.55782314	      6.75091224	     78.25011625	      1.36572217	     36.48334093	    -18.03437624	     -7.49999987	    -22.39176820	      0.92312393	      1.43080177	     51.36554389	    -12.79430379	     24.78352967	     50.78833675	     82.70675883	     45.73742333	    -10.27587749	      9.97964507	     51.52231550	     64.67764342
